<svg width="30" height="26" viewBox="0 0 30 26" fill="none" xmlns="http://www.w3.org/2000/svg">
<path fill-rule="evenodd" clip-rule="evenodd" d="M17.0999 0C20.6999 0 23.7333 1.23335 26.1999 3.70001C28.7333 6.23335 29.9999 9.30002 29.9999 12.9C29.9999 16.4334 28.7333 19.4667 26.1999 22C23.7333 24.4667 20.6999 25.7 17.0999 25.7C13.6333 25.7 10.5999 24.4667 7.99994 22L10.0999 19.9C12.0333 21.8334 14.3666 22.8 17.0999 22.8C19.8999 22.8 22.2666 21.8334 24.1999 19.9C26.1333 17.9667 27.0999 15.6334 27.0999 12.9C27.0999 10.1 26.1333 7.73332 24.1999 5.79999C22.2666 3.86665 19.8999 2.90002 17.0999 2.90002C14.3666 2.90002 12.0333 3.86665 10.0999 5.79999C8.1666 7.73332 7.19994 10.1 7.19994 12.9H11.4999L5.59994 18.6V18.4L-6.10352e-05 12.9H4.29994C4.29994 9.30002 5.53327 6.26665 7.99994 3.79999C10.5333 1.26665 13.5666 0 17.0999 0ZM15.6999 7.20001H17.8999V13.2L22.7999 16.2L21.7999 17.9L15.6999 14.3V7.20001Z" fill="#F1F1F1"/>
</svg>
