<svg width="29" height="30" viewBox="0 0 29 30" fill="none" xmlns="http://www.w3.org/2000/svg">
<path fill-rule="evenodd" clip-rule="evenodd" d="M18.3 29.7C17 29.7 15.5 29.4 14.1 29C12.3666 28.5333 10.7 27.8667 9.09997 27C7.39997 26.1 6.19997 24.8 5.39997 23C4.19997 20.7 3.39997 18.3 2.69997 15.8C2.09997 13.7 1.59997 11.5 0.999973 9.40003C0.799973 8.60003 1.29997 8.1 2.09997 8C5.79997 8 9.29997 7.39998 12.7 6.09998C15.7 4.99998 18.4 3.40003 20.8 1.40003C20.8666 1.40003 20.9333 1.36666 21 1.29999C21.6 0.799992 22.3 0.89998 22.6 1.59998C23.6 3.49998 24.6 5.39999 25.5 7.29999C26.5 9.49999 27.5 11.9 28.1 14.3C28.3666 15.2333 28.5333 16.1666 28.6 17.1C28.7 18.3 28.3 19.4 27.9 20.5C26.8 23.1 25.4 25.4 23.4 27.5C23.2 27.7 22.9666 27.9 22.7 28.1C21.4 29.3 20.3 29.7 18.3 29.7ZM3.29997 10.1C3.29997 10.1666 3.29997 10.2333 3.29997 10.3C3.99997 12.6 4.59998 15 5.29998 17.3C5.89998 19.2 6.59997 21 7.49997 22.7C7.99997 23.6 8.69997 24.4 9.49997 24.9C12.1 26.4334 14.9 27.3667 17.9 27.7C19.4 27.8 20.7 27.3 21.8 26.2C23.8 24.1334 25.2666 21.8 26.2 19.2C26.5 18.2 26.7 17.3 26.5 16.3C26.3 15.4 26.1 14.6 25.8 13.8C24.9 10.7 23.5 7.8 22.1 5C21.8333 4.53334 21.6 4.06665 21.4 3.59998C16.0666 7.66665 10.0333 9.83331 3.29997 10.1Z" fill="#F1F1F1"/>
<path d="M17 24.5C15.8 24.3667 14.6667 24.0667 13.6 23.6C13 23.4 12.8 22.8 13 22.2C13.3 21.7 13.8 21.5 14.4 21.7C15.4 22.1 16.3 22.3 17.3 22.3C17.8333 22.2333 18.3 22.0334 18.7 21.7C19.5 21.1 20 20.4 20.4 19.6C20.7 19.1 21.2 18.8 21.7 19C22.2 19.2 22.6 19.8 22.4 20.3C21.6 22 20.5 23.5 18.6 24.2C18.1 24.3 17.5 24.4 17 24.5Z" fill="#F1F1F1"/>
<path d="M20.6 9.5C21.2 9.6 21.7 9.70002 22.2 9.90002C22.8 10.1 23.2 10.6 23 11.2C22.8 11.8 22.3 12 21.7 11.9C21.2 11.8 20.7 11.7 20.3 11.7C19.4 11.7 18.8 12.3 18.4 13C18.1 13.3 17.9 13.6 17.4 13.6C16.6 13.7 16 12.8 16.4 12.1C17.3 10.5 18.7 9.5 20.6 9.5Z" fill="#F1F1F1"/>
<path d="M11.1 13.1C11.4 13.1 11.9 13.2001 12.5 13.4001C13.1 13.6001 13.4 14.1 13.2 14.7C13.1 15.3 12.5 15.6001 11.8 15.4001C11.4 15.3001 11 15.2 10.6 15.2C9.69999 15.2 9.09999 15.8 8.59999 16.5C8.39999 16.8 8.09999 17.1 7.59999 17.1C6.79999 17.1 6.29998 16.3 6.69998 15.6C7.59998 14 8.99999 13 11.1 13.1Z" fill="#F1F1F1"/>
</svg>
