<svg width="26" height="30" viewBox="0 0 26 30" fill="none" xmlns="http://www.w3.org/2000/svg">
<path d="M14.3999 19.6H11.4999C11.0999 19.6 10.7999 20.1 10.7999 20.7V29.2H15.0999V20.7C15.0999 20.1 14.7999 19.6 14.3999 19.6Z" fill="#F1F1F1"/>
<path d="M24.4999 8.89999L15.7999 1.10001C14.9999 0.400006 13.9999 0 12.9999 0C11.8999 0 10.8999 0.400006 10.0999 1.10001L1.49994 8.89999C0.499939 9.69999 -6.10352e-05 10.9 -6.10352e-05 12.2V24.8C-6.10352e-05 27.2 1.89994 29.2 4.29994 29.2H8.59994V20.6C8.59994 18.8 9.89994 17.4 11.4999 17.4H14.3999C15.9999 17.4 17.2999 18.8 17.2999 20.6V29.2H21.5999C23.9999 29.2 25.8999 27.2 25.8999 24.8V12.2C25.8999 10.9 25.3999 9.69999 24.4999 8.89999Z" fill="#F1F1F1"/>
</svg>
