<svg width="28" height="27" viewBox="0 0 28 27" fill="none" xmlns="http://www.w3.org/2000/svg">
<path fill-rule="evenodd" clip-rule="evenodd" d="M1.49994 0C2.29994 0 2.99994 0.7 2.99994 1.5V24.5C2.99994 25.3 2.29994 26 1.49994 26C0.699939 26 -6.10352e-05 25.3 -6.10352e-05 24.5V1.5C-6.10352e-05 0.7 0.699939 0 1.49994 0Z" fill="#F1F1F1"/>
<path fill-rule="evenodd" clip-rule="evenodd" d="M26.4999 0C27.2999 0 27.9999 0.7 27.9999 1.5V24.5C27.9999 25.3 27.2999 26 26.4999 26C25.6999 26 24.9999 25.3 24.9999 24.5V1.5C24.9999 0.7 25.6999 0 26.4999 0Z" fill="#F1F1F1"/>
<path fill-rule="evenodd" clip-rule="evenodd" d="M9.99994 1H17.9999C20.1999 1 21.9999 2.8 21.9999 5V8C21.9999 10.2 20.1999 12 17.9999 12H9.99994C7.79994 12 5.99994 10.2 5.99994 8V5C5.99994 2.8 7.79994 1 9.99994 1Z" stroke="#F1F1F1" stroke-width="2" stroke-miterlimit="100"/>
<path fill-rule="evenodd" clip-rule="evenodd" d="M9.99994 15H17.9999C20.1999 15 21.9999 16.8 21.9999 19V22C21.9999 24.2 20.1999 26 17.9999 26H9.99994C7.79994 26 5.99994 24.2 5.99994 22V19C5.99994 16.8 7.79994 15 9.99994 15Z" stroke="#F1F1F1" stroke-width="2" stroke-miterlimit="100"/>
</svg>
