<svg width="27" height="28" viewBox="0 0 27 28" fill="none" xmlns="http://www.w3.org/2000/svg">
<path fill-rule="evenodd" clip-rule="evenodd" d="M3.99994 0C10.1999 0 16.4333 0 22.6999 0C22.7666 0 22.8333 0.0333394 22.8999 0.100006C24.9999 0.500006 26.4999 2.10001 26.5999 4.20001C26.6999 5.30001 26.6999 6.29999 26.6999 7.39999C26.6999 12.5333 26.6999 17.6333 26.6999 22.7C26.6999 24.9 25.1999 26.7 23.0999 27.2C22.9666 27.2667 22.7999 27.3333 22.5999 27.4H3.99994C3.93327 27.3333 3.86661 27.3 3.79994 27.3C1.69994 26.9 0.199939 25.3 -6.10352e-05 23.2C-6.10352e-05 23 -6.10352e-05 22.8 -6.10352e-05 22.6C-6.10352e-05 16.6667 -6.10352e-05 10.7 -6.10352e-05 4.70001C-6.10352e-05 2.50001 1.29994 0.800012 3.29994 0.200012C3.49994 0.133346 3.73327 0.0666667 3.99994 0ZM13.2999 20.5C17.0333 20.5 20.7333 20.5 24.3999 20.5C24.8999 20.5 24.8999 20.4 24.8999 20C24.8999 15.8 24.8999 11.6 24.8999 7.39999C24.8999 6.89999 24.8999 6.89999 24.3999 6.89999C16.9999 6.89999 9.59994 6.89999 2.19994 6.89999C1.79994 6.89999 1.69994 6.89999 1.69994 7.39999C1.69994 11.6 1.69994 15.8 1.69994 20C1.69994 20.5 1.69994 20.5 2.19994 20.5C5.93327 20.5 9.63328 20.5 13.2999 20.5ZM16.3999 5.20001C17.0666 5.20001 17.7333 5.20001 18.3999 5.20001C18.5999 5.20001 18.6999 5.09999 18.6999 4.89999C18.6999 3.89999 18.6999 2.93333 18.6999 2C18.6999 1.8 18.6999 1.70001 18.3999 1.70001C17.1333 1.70001 15.8333 1.70001 14.4999 1.70001C14.2999 1.70001 14.1999 1.8 14.1999 2C14.1999 2.93333 14.1999 3.89999 14.1999 4.89999C14.1999 5.09999 14.2999 5.20001 14.4999 5.20001C15.1666 5.20001 15.7999 5.20001 16.3999 5.20001ZM16.3999 22.2C15.7999 22.2 15.1666 22.2 14.4999 22.2C14.2999 22.2 14.1999 22.3 14.1999 22.5C14.1999 23.4333 14.1999 24.3667 14.1999 25.3C14.1999 25.6 14.2999 25.7 14.4999 25.7C15.8333 25.6333 17.1333 25.6333 18.3999 25.7C18.5999 25.7 18.6999 25.6 18.6999 25.3C18.6999 24.3667 18.6999 23.4333 18.6999 22.5C18.6999 22.2 18.5999 22.2 18.3999 22.2C17.7333 22.2 17.0666 22.2 16.3999 22.2ZM10.2999 1.70001C9.69994 1.70001 9.09994 1.70001 8.49994 1.70001C8.09994 1.70001 8.09994 1.70001 8.09994 2.10001C8.09994 3.03334 8.09994 3.93332 8.09994 4.79999C8.09994 5.09999 8.09994 5.20001 8.39994 5.20001C9.66661 5.20001 10.8999 5.20001 12.0999 5.20001C12.3999 5.20001 12.4999 5.09999 12.4999 4.79999C12.4999 3.86665 12.4999 2.93333 12.4999 2C12.4999 1.8 12.3999 1.70001 12.0999 1.70001C11.4999 1.70001 10.8999 1.70001 10.2999 1.70001ZM10.2999 25.6C10.8999 25.6 11.5333 25.6 12.1999 25.6C12.3999 25.7 12.4999 25.6 12.4999 25.4C12.4999 24.4 12.4999 23.4333 12.4999 22.5C12.4999 22.3 12.3999 22.2 12.1999 22.2C10.9333 22.2 9.66661 22.2 8.39994 22.2C8.19994 22.2 8.09994 22.3 8.09994 22.5C8.09994 23.4333 8.09994 24.3667 8.09994 25.3C8.09994 25.6 8.19994 25.7 8.39994 25.6C9.06661 25.6 9.69994 25.6 10.2999 25.6ZM4.09994 22.2C3.43327 22.2 2.7666 22.2 2.09994 22.2C1.89994 22.2 1.79994 22.2 1.79994 22.4C1.49994 23.9 2.59994 25.4 4.09994 25.6C4.69994 25.7 5.39994 25.6 5.99994 25.6C6.29994 25.7 6.29994 25.6 6.29994 25.3C6.36661 24.3667 6.36661 23.4333 6.29994 22.5C6.29994 22.2 6.29994 22.2 5.99994 22.2C5.33327 22.2 4.69994 22.2 4.09994 22.2ZM3.99994 5.20001C4.66661 5.20001 5.33327 5.20001 5.99994 5.20001C6.29994 5.20001 6.29994 5.09999 6.29994 4.79999C6.29994 4.59999 6.29994 4.36667 6.29994 4.10001C6.29994 3.43334 6.29994 2.73333 6.29994 2C6.29994 1.9 6.39994 1.70001 6.19994 1.70001C5.39994 1.70001 4.59994 1.69999 3.89994 1.79999C2.49994 2.09999 1.59994 3.5 1.79994 5C1.79994 5.2 1.89994 5.20001 1.99994 5.20001C2.66661 5.20001 3.33327 5.20001 3.99994 5.20001ZM22.6999 22.2C22.0333 22.2 21.3999 22.2 20.7999 22.2C20.5333 22.2 20.3999 22.3 20.3999 22.5C20.3999 22.7667 20.3999 23.0333 20.3999 23.3C20.3999 23.9667 20.3999 24.6333 20.3999 25.3C20.3999 25.5 20.3999 25.6 20.5999 25.6C21.2999 25.6 22.0999 25.7 22.7999 25.5C23.8999 25.4 24.9999 24.3 24.8999 22.6C24.8999 22.2 24.8999 22.2 24.4999 22.2C23.8999 22.2 23.2999 22.2 22.6999 22.2ZM22.6999 5.20001C23.2999 5.20001 23.9333 5.20001 24.5999 5.20001C24.6999 5.20001 24.8999 5.2 24.8999 5C25.0999 3 23.6999 1.89999 22.4999 1.79999C21.8999 1.69999 21.3999 1.70001 20.7999 1.70001C20.4999 1.70001 20.4999 1.80001 20.4999 2.10001C20.4999 3.03334 20.4999 3.93332 20.4999 4.79999C20.4999 5.09999 20.5999 5.20001 20.7999 5.20001C21.3999 5.20001 22.0333 5.20001 22.6999 5.20001Z" fill="#F1F1F1"/>
<path fill-rule="evenodd" clip-rule="evenodd" d="M8.79994 13.7C8.79994 12.2333 8.79994 10.7666 8.79994 9.29998C8.79994 9.23331 8.79994 9.13333 8.79994 8.99999C8.69994 8.09999 9.49994 7.7 10.2999 8.1C12.8999 9.7 15.6999 11.3 18.3999 12.8C18.5999 13 18.8999 13.2 18.8999 13.5C18.9666 13.9 18.7999 14.2333 18.3999 14.5C17.3333 15.1 16.2999 15.7 15.2999 16.3C13.6333 17.3 11.9666 18.2667 10.2999 19.2C10.1666 19.2667 10.0666 19.3 9.99994 19.3C9.49994 19.6 8.89994 19.3 8.79994 18.7C8.73327 18.5 8.73327 18.3333 8.79994 18.2C8.79994 16.6667 8.79994 15.1667 8.79994 13.7ZM10.4999 17.1C12.4999 15.9 14.3999 14.8 16.3999 13.7C14.3999 12.5 12.4999 11.4 10.4999 10.3V17.1Z" fill="#F1F1F1"/>
</svg>
