<svg width="0" height="0" class="hidden" xmlns="http://www.w3.org/2000/svg">
 
 <!-- Sidebar -->
  <symbol fill="none" xmlns="http://www.w3.org/2000/svg" viewBox="0 0 30 26" id="search">
    <mask id="mask0_1_220" maskUnits="userSpaceOnUse" x="0" y="0" width="30" height="26">
      <path d="M-6.10352e-05 0H29.9999V26H-6.10352e-05V0Z" fill="white"></path>
    </mask>
    <g mask="url(#mask0_1_220)">
      <path fill-rule="evenodd" clip-rule="evenodd" d="M28.4 23.7C28 24.4 27.1 24.6 26.4 24.2L19.6 19.6C18 21.3 16 22.5 13.7 23C7.79995 24.1 2.19995 20.3 1.09995 14.4C-0.100045 8.59999 3.69995 3 9.59995 1.8C15.4 0.699998 21 4.5 22.2 10.3C22.6 12.6 22.3 15 21.3 17.1L28.1 21.6C28.7 22.1 28.9 23.1 28.4 23.7ZM13.1 19.9C17.3 19.1 20 15.1 19.2 10.9C18.4 6.79999 14.3 4 10.1 4.8C5.99995 5.7 3.29995 9.69999 4.09995 13.9C4.89995 18 8.89995 20.7 13.1 19.9Z" fill="#F1F1F1"></path>
    </g>
  </symbol>

  <symbol fill="none" xmlns="http://www.w3.org/2000/svg" viewBox="0 0 26 30" id="home">
    <path d="M14.3999 19.6H11.4999C11.0999 19.6 10.7999 20.1 10.7999 20.7V29.2H15.0999V20.7C15.0999 20.1 14.7999 19.6 14.3999 19.6Z" fill="#F1F1F1"></path>
    <path d="M24.4999 8.89999L15.7999 1.10001C14.9999 0.400006 13.9999 0 12.9999 0C11.8999 0 10.8999 0.400006 10.0999 1.10001L1.49994 8.89999C0.499939 9.69999 -6.10352e-05 10.9 -6.10352e-05 12.2V24.8C-6.10352e-05 27.2 1.89994 29.2 4.29994 29.2H8.59994V20.6C8.59994 18.8 9.89994 17.4 11.4999 17.4H14.3999C15.9999 17.4 17.2999 18.8 17.2999 20.6V29.2H21.5999C23.9999 29.2 25.8999 27.2 25.8999 24.8V12.2C25.8999 10.9 25.3999 9.69999 24.4999 8.89999Z" fill="#F1F1F1"></path>
  </symbol>

  <symbol fill="none" xmlns="http://www.w3.org/2000/svg" viewBox="0 0 27 28" id="shows">
    <path fill-rule="evenodd" clip-rule="evenodd" d="M3.99994 0C10.1999 0 16.4333 0 22.6999 0C22.7666 0 22.8333 0.0333394 22.8999 0.100006C24.9999 0.500006 26.4999 2.10001 26.5999 4.20001C26.6999 5.30001 26.6999 6.29999 26.6999 7.39999C26.6999 12.5333 26.6999 17.6333 26.6999 22.7C26.6999 24.9 25.1999 26.7 23.0999 27.2C22.9666 27.2667 22.7999 27.3333 22.5999 27.4H3.99994C3.93327 27.3333 3.86661 27.3 3.79994 27.3C1.69994 26.9 0.199939 25.3 -6.10352e-05 23.2C-6.10352e-05 23 -6.10352e-05 22.8 -6.10352e-05 22.6C-6.10352e-05 16.6667 -6.10352e-05 10.7 -6.10352e-05 4.70001C-6.10352e-05 2.50001 1.29994 0.800012 3.29994 0.200012C3.49994 0.133346 3.73327 0.0666667 3.99994 0ZM13.2999 20.5C17.0333 20.5 20.7333 20.5 24.3999 20.5C24.8999 20.5 24.8999 20.4 24.8999 20C24.8999 15.8 24.8999 11.6 24.8999 7.39999C24.8999 6.89999 24.8999 6.89999 24.3999 6.89999C16.9999 6.89999 9.59994 6.89999 2.19994 6.89999C1.79994 6.89999 1.69994 6.89999 1.69994 7.39999C1.69994 11.6 1.69994 15.8 1.69994 20C1.69994 20.5 1.69994 20.5 2.19994 20.5C5.93327 20.5 9.63328 20.5 13.2999 20.5ZM16.3999 5.20001C17.0666 5.20001 17.7333 5.20001 18.3999 5.20001C18.5999 5.20001 18.6999 5.09999 18.6999 4.89999C18.6999 3.89999 18.6999 2.93333 18.6999 2C18.6999 1.8 18.6999 1.70001 18.3999 1.70001C17.1333 1.70001 15.8333 1.70001 14.4999 1.70001C14.2999 1.70001 14.1999 1.8 14.1999 2C14.1999 2.93333 14.1999 3.89999 14.1999 4.89999C14.1999 5.09999 14.2999 5.20001 14.4999 5.20001C15.1666 5.20001 15.7999 5.20001 16.3999 5.20001ZM16.3999 22.2C15.7999 22.2 15.1666 22.2 14.4999 22.2C14.2999 22.2 14.1999 22.3 14.1999 22.5C14.1999 23.4333 14.1999 24.3667 14.1999 25.3C14.1999 25.6 14.2999 25.7 14.4999 25.7C15.8333 25.6333 17.1333 25.6333 18.3999 25.7C18.5999 25.7 18.6999 25.6 18.6999 25.3C18.6999 24.3667 18.6999 23.4333 18.6999 22.5C18.6999 22.2 18.5999 22.2 18.3999 22.2C17.7333 22.2 17.0666 22.2 16.3999 22.2ZM10.2999 1.70001C9.69994 1.70001 9.09994 1.70001 8.49994 1.70001C8.09994 1.70001 8.09994 1.70001 8.09994 2.10001C8.09994 3.03334 8.09994 3.93332 8.09994 4.79999C8.09994 5.09999 8.09994 5.20001 8.39994 5.20001C9.66661 5.20001 10.8999 5.20001 12.0999 5.20001C12.3999 5.20001 12.4999 5.09999 12.4999 4.79999C12.4999 3.86665 12.4999 2.93333 12.4999 2C12.4999 1.8 12.3999 1.70001 12.0999 1.70001C11.4999 1.70001 10.8999 1.70001 10.2999 1.70001ZM10.2999 25.6C10.8999 25.6 11.5333 25.6 12.1999 25.6C12.3999 25.7 12.4999 25.6 12.4999 25.4C12.4999 24.4 12.4999 23.4333 12.4999 22.5C12.4999 22.3 12.3999 22.2 12.1999 22.2C10.9333 22.2 9.66661 22.2 8.39994 22.2C8.19994 22.2 8.09994 22.3 8.09994 22.5C8.09994 23.4333 8.09994 24.3667 8.09994 25.3C8.09994 25.6 8.19994 25.7 8.39994 25.6C9.06661 25.6 9.69994 25.6 10.2999 25.6ZM4.09994 22.2C3.43327 22.2 2.7666 22.2 2.09994 22.2C1.89994 22.2 1.79994 22.2 1.79994 22.4C1.49994 23.9 2.59994 25.4 4.09994 25.6C4.69994 25.7 5.39994 25.6 5.99994 25.6C6.29994 25.7 6.29994 25.6 6.29994 25.3C6.36661 24.3667 6.36661 23.4333 6.29994 22.5C6.29994 22.2 6.29994 22.2 5.99994 22.2C5.33327 22.2 4.69994 22.2 4.09994 22.2ZM3.99994 5.20001C4.66661 5.20001 5.33327 5.20001 5.99994 5.20001C6.29994 5.20001 6.29994 5.09999 6.29994 4.79999C6.29994 4.59999 6.29994 4.36667 6.29994 4.10001C6.29994 3.43334 6.29994 2.73333 6.29994 2C6.29994 1.9 6.39994 1.70001 6.19994 1.70001C5.39994 1.70001 4.59994 1.69999 3.89994 1.79999C2.49994 2.09999 1.59994 3.5 1.79994 5C1.79994 5.2 1.89994 5.20001 1.99994 5.20001C2.66661 5.20001 3.33327 5.20001 3.99994 5.20001ZM22.6999 22.2C22.0333 22.2 21.3999 22.2 20.7999 22.2C20.5333 22.2 20.3999 22.3 20.3999 22.5C20.3999 22.7667 20.3999 23.0333 20.3999 23.3C20.3999 23.9667 20.3999 24.6333 20.3999 25.3C20.3999 25.5 20.3999 25.6 20.5999 25.6C21.2999 25.6 22.0999 25.7 22.7999 25.5C23.8999 25.4 24.9999 24.3 24.8999 22.6C24.8999 22.2 24.8999 22.2 24.4999 22.2C23.8999 22.2 23.2999 22.2 22.6999 22.2ZM22.6999 5.20001C23.2999 5.20001 23.9333 5.20001 24.5999 5.20001C24.6999 5.20001 24.8999 5.2 24.8999 5C25.0999 3 23.6999 1.89999 22.4999 1.79999C21.8999 1.69999 21.3999 1.70001 20.7999 1.70001C20.4999 1.70001 20.4999 1.80001 20.4999 2.10001C20.4999 3.03334 20.4999 3.93332 20.4999 4.79999C20.4999 5.09999 20.5999 5.20001 20.7999 5.20001C21.3999 5.20001 22.0333 5.20001 22.6999 5.20001Z" fill="#F1F1F1"></path>
    <path fill-rule="evenodd" clip-rule="evenodd" d="M8.79994 13.7C8.79994 12.2333 8.79994 10.7666 8.79994 9.29998C8.79994 9.23331 8.79994 9.13333 8.79994 8.99999C8.69994 8.09999 9.49994 7.7 10.2999 8.1C12.8999 9.7 15.6999 11.3 18.3999 12.8C18.5999 13 18.8999 13.2 18.8999 13.5C18.9666 13.9 18.7999 14.2333 18.3999 14.5C17.3333 15.1 16.2999 15.7 15.2999 16.3C13.6333 17.3 11.9666 18.2667 10.2999 19.2C10.1666 19.2667 10.0666 19.3 9.99994 19.3C9.49994 19.6 8.89994 19.3 8.79994 18.7C8.73327 18.5 8.73327 18.3333 8.79994 18.2C8.79994 16.6667 8.79994 15.1667 8.79994 13.7ZM10.4999 17.1C12.4999 15.9 14.3999 14.8 16.3999 13.7C14.3999 12.5 12.4999 11.4 10.4999 10.3V17.1Z" fill="#F1F1F1"></path>
  </symbol>

  <symbol fill="none" xmlns="http://www.w3.org/2000/svg" viewBox="0 0 28 27" id="movies">
    <path fill-rule="evenodd" clip-rule="evenodd" d="M1.49994 0C2.29994 0 2.99994 0.7 2.99994 1.5V24.5C2.99994 25.3 2.29994 26 1.49994 26C0.699939 26 -6.10352e-05 25.3 -6.10352e-05 24.5V1.5C-6.10352e-05 0.7 0.699939 0 1.49994 0Z" fill="#F1F1F1"></path>
    <path fill-rule="evenodd" clip-rule="evenodd" d="M26.4999 0C27.2999 0 27.9999 0.7 27.9999 1.5V24.5C27.9999 25.3 27.2999 26 26.4999 26C25.6999 26 24.9999 25.3 24.9999 24.5V1.5C24.9999 0.7 25.6999 0 26.4999 0Z" fill="#F1F1F1"></path>
    <path fill-rule="evenodd" clip-rule="evenodd" d="M9.99994 1H17.9999C20.1999 1 21.9999 2.8 21.9999 5V8C21.9999 10.2 20.1999 12 17.9999 12H9.99994C7.79994 12 5.99994 10.2 5.99994 8V5C5.99994 2.8 7.79994 1 9.99994 1Z" stroke="#F1F1F1" stroke-width="2" stroke-miterlimit="100"></path>
    <path fill-rule="evenodd" clip-rule="evenodd" d="M9.99994 15H17.9999C20.1999 15 21.9999 16.8 21.9999 19V22C21.9999 24.2 20.1999 26 17.9999 26H9.99994C7.79994 26 5.99994 24.2 5.99994 22V19C5.99994 16.8 7.79994 15 9.99994 15Z" stroke="#F1F1F1" stroke-width="2" stroke-miterlimit="100"></path>
  </symbol>

  <symbol fill="none" xmlns="http://www.w3.org/2000/svg" viewBox="0 0 29 30" id="genre">
    <path fill-rule="evenodd" clip-rule="evenodd" d="M18.3 29.7C17 29.7 15.5 29.4 14.1 29C12.3666 28.5333 10.7 27.8667 9.09997 27C7.39997 26.1 6.19997 24.8 5.39997 23C4.19997 20.7 3.39997 18.3 2.69997 15.8C2.09997 13.7 1.59997 11.5 0.999973 9.40003C0.799973 8.60003 1.29997 8.1 2.09997 8C5.79997 8 9.29997 7.39998 12.7 6.09998C15.7 4.99998 18.4 3.40003 20.8 1.40003C20.8666 1.40003 20.9333 1.36666 21 1.29999C21.6 0.799992 22.3 0.89998 22.6 1.59998C23.6 3.49998 24.6 5.39999 25.5 7.29999C26.5 9.49999 27.5 11.9 28.1 14.3C28.3666 15.2333 28.5333 16.1666 28.6 17.1C28.7 18.3 28.3 19.4 27.9 20.5C26.8 23.1 25.4 25.4 23.4 27.5C23.2 27.7 22.9666 27.9 22.7 28.1C21.4 29.3 20.3 29.7 18.3 29.7ZM3.29997 10.1C3.29997 10.1666 3.29997 10.2333 3.29997 10.3C3.99997 12.6 4.59998 15 5.29998 17.3C5.89998 19.2 6.59997 21 7.49997 22.7C7.99997 23.6 8.69997 24.4 9.49997 24.9C12.1 26.4334 14.9 27.3667 17.9 27.7C19.4 27.8 20.7 27.3 21.8 26.2C23.8 24.1334 25.2666 21.8 26.2 19.2C26.5 18.2 26.7 17.3 26.5 16.3C26.3 15.4 26.1 14.6 25.8 13.8C24.9 10.7 23.5 7.8 22.1 5C21.8333 4.53334 21.6 4.06665 21.4 3.59998C16.0666 7.66665 10.0333 9.83331 3.29997 10.1Z" fill="#F1F1F1"></path>
    <path d="M17 24.5C15.8 24.3667 14.6667 24.0667 13.6 23.6C13 23.4 12.8 22.8 13 22.2C13.3 21.7 13.8 21.5 14.4 21.7C15.4 22.1 16.3 22.3 17.3 22.3C17.8333 22.2333 18.3 22.0334 18.7 21.7C19.5 21.1 20 20.4 20.4 19.6C20.7 19.1 21.2 18.8 21.7 19C22.2 19.2 22.6 19.8 22.4 20.3C21.6 22 20.5 23.5 18.6 24.2C18.1 24.3 17.5 24.4 17 24.5Z" fill="#F1F1F1"></path>
    <path d="M20.6 9.5C21.2 9.6 21.7 9.70002 22.2 9.90002C22.8 10.1 23.2 10.6 23 11.2C22.8 11.8 22.3 12 21.7 11.9C21.2 11.8 20.7 11.7 20.3 11.7C19.4 11.7 18.8 12.3 18.4 13C18.1 13.3 17.9 13.6 17.4 13.6C16.6 13.7 16 12.8 16.4 12.1C17.3 10.5 18.7 9.5 20.6 9.5Z" fill="#F1F1F1"></path>
    <path d="M11.1 13.1C11.4 13.1 11.9 13.2001 12.5 13.4001C13.1 13.6001 13.4 14.1 13.2 14.7C13.1 15.3 12.5 15.6001 11.8 15.4001C11.4 15.3001 11 15.2 10.6 15.2C9.69999 15.2 9.09999 15.8 8.59999 16.5C8.39999 16.8 8.09999 17.1 7.59999 17.1C6.79999 17.1 6.29998 16.3 6.69998 15.6C7.59998 14 8.99999 13 11.1 13.1Z" fill="#F1F1F1"></path>
  </symbol>

  <symbol fill="none" xmlns="http://www.w3.org/2000/svg" viewBox="0 0 30 26" id="clock">
    <path fill-rule="evenodd" clip-rule="evenodd" d="M17.0999 0C20.6999 0 23.7333 1.23335 26.1999 3.70001C28.7333 6.23335 29.9999 9.30002 29.9999 12.9C29.9999 16.4334 28.7333 19.4667 26.1999 22C23.7333 24.4667 20.6999 25.7 17.0999 25.7C13.6333 25.7 10.5999 24.4667 7.99994 22L10.0999 19.9C12.0333 21.8334 14.3666 22.8 17.0999 22.8C19.8999 22.8 22.2666 21.8334 24.1999 19.9C26.1333 17.9667 27.0999 15.6334 27.0999 12.9C27.0999 10.1 26.1333 7.73332 24.1999 5.79999C22.2666 3.86665 19.8999 2.90002 17.0999 2.90002C14.3666 2.90002 12.0333 3.86665 10.0999 5.79999C8.1666 7.73332 7.19994 10.1 7.19994 12.9H11.4999L5.59994 18.6V18.4L-6.10352e-05 12.9H4.29994C4.29994 9.30002 5.53327 6.26665 7.99994 3.79999C10.5333 1.26665 13.5666 0 17.0999 0ZM15.6999 7.20001H17.8999V13.2L22.7999 16.2L21.7999 17.9L15.6999 14.3V7.20001Z" fill="#F1F1F1"></path>
  </symbol>

  <symbol fill="none" xmlns="http://www.w3.org/2000/svg" viewBox="0 0 18 20" id="play">
    <path d="M0.700012 1.2C0.700012 0.999997 0.733352 0.79996 0.800018 0.59996C1.10002 -4.01139e-05 1.90001 -0.200003 2.40001 0.199997L16.5 8.49998C16.7 8.63332 16.8667 8.79998 17 8.99998C17.3 9.59999 17.1 10.3 16.5 10.7L2.40001 19C2.26668 19.1333 2.06668 19.2 1.80002 19.2C1.20002 19.2 0.700012 18.6 0.700012 17.9V1.2Z" fill="#040404"></path>
  </symbol>

</svg>